<svg width="139" height="97" viewBox="0 0 139 97" fill="none" xmlns="http://www.w3.org/2000/svg">
<path d="M27.9345 76.9542C38.1979 71.9415 48.6451 67.251 58.6895 61.8383C73.1536 54.0353 87.6552 46.2199 101.534 37.4519C113.066 30.17 123.554 21.3215 128.853 8.00125C129.657 5.97865 129.504 3.39862 130.736 1.79936C131.646 0.632718 134.567 -0.220042 135.746 0.398157C137.224 1.16636 138.869 3.72503 138.669 5.27908C137.621 13.5227 133.17 20.3229 127.676 26.214C113.908 40.9832 96.8719 51.3434 79.1659 60.5908C65.655 67.6469 51.9203 74.2791 38.2592 81.0561C34.8741 82.7332 31.3877 84.2012 27.6469 85.8939C33.2881 86.9433 38.4597 87.8864 43.6331 88.8641C44.2801 88.985 45.1132 89.0889 45.5038 89.5247C46.6985 90.8722 47.7118 92.3851 48.8009 93.8283C47.2955 94.6049 45.8131 95.9995 44.2818 96.0439C41.108 96.1248 37.9116 95.2138 34.7235 95.2227C25.419 95.2529 16.1025 95.699 6.80117 95.5941C4.91328 95.5746 2.45946 94.3122 1.3023 92.8277C-0.334379 90.7358 -0.154077 87.9301 2.10576 85.9329C6.08977 82.4035 10.2806 79.1121 14.1401 75.4579C16.1323 73.5686 17.5337 71.064 19.322 68.9262C20.9278 66.9989 22.4631 64.0892 24.4619 63.6633C26.2448 63.2801 29.5242 65.2109 30.5467 67.021C32.166 69.8786 30.8941 72.9852 28.1192 75.1242C27.8332 75.3403 27.7328 75.7886 27.5473 76.1342C27.6764 76.4076 27.8083 76.6704 27.9373 76.9438L27.9345 76.9542Z" fill="#FD5B5B"/>
</svg>
